<svg width="75.9203" height="74.6541" viewBox="0 0 75.9203 74.6541" xmlns="http://www.w3.org/2000/svg" xmlns:xlink="http://www.w3.org/1999/xlink" id="svg134" fill="none" xml:space="preserve" overflow="hidden"><defs id="defs138"><clipPath id="clip0_32_2141"><rect x="0" y="0" width="24" height="24" id="rect243" fill="#FFFFFF"/></clipPath></defs><ellipse cx="37.9601" cy="37.327" rx="36.4566" ry="35.8235" id="path356" stroke="#585858" stroke-width="3.00707"/><g id="g266" fill="#585858" transform="matrix(2.52632 0 0 2.52632 8.38119 6.37968)"><path d="M11 12C13.21 12 15 10.21 15 8 15 5.79 13.21 4 11 4 8.79 4 7 5.79 7 8 7 10.21 8.79 12 11 12ZM11 6C12.1 6 13 6.9 13 8 13 9.1 12.1 10 11 10 9.9 10 9 9.1 9 8 9 6.9 9.9 6 11 6ZM5 18C5.2 17.37 7.57 16.32 9.96 16.06L12 14.06C11.61 14.02 11.32 14 11 14 8.33 14 3 15.34 3 18L3 20 12 20 10 18ZM20.6 12.5 15.47 17.67 13.4 15.59 12 17 15.47 20.5 22 13.91Z" id="path239" clip-path="url(#clipPath259)"/></g></svg>