<svg width="75.9203" height="74.6541" viewBox="0 0 75.9203 74.6541" xmlns="http://www.w3.org/2000/svg" xmlns:xlink="http://www.w3.org/1999/xlink" id="svg134" fill="none" xml:space="preserve" overflow="hidden"><defs id="defs138"><clipPath id="clip0_32_2141"><rect x="0" y="0" width="24" height="24" id="rect243" fill="#FFFFFF"/></clipPath><clipPath id="clip0_32_1516"><rect x="0" y="0" width="24" height="24" id="rect2184" fill="#FFFFFF"/></clipPath><clipPath id="clip0_32_2164"><rect x="0" y="0" width="24" height="24" id="rect4470" fill="#FFFFFF"/></clipPath></defs><ellipse cx="37.9601" cy="37.327" rx="36.4566" ry="35.8235" id="path356" stroke="#585858" stroke-width="3.00707"/><g id="g4493" fill="#585858" transform="matrix(-2.65 0 0 -2.65 69.7601 68.452)"><path d="M14 5 22 5 22 7 14 7ZM14 10.5 22 10.5 22 12.5 14 12.5ZM14 16 22 16 22 18 14 18ZM2 11.5C2 15.08 4.92 18 8.5 18L9 18 9 20 12 17 9 14 9 16 8.5 16C6.02 16 4 13.98 4 11.5 4 9.02 6.02 7 8.5 7L12 7 12 5 8.5 5C4.92 5 2 7.92 2 11.5Z" id="path4466" clip-path="url(#clipPath4486)"/></g></svg>