<svg width="75.9203" height="74.6541" viewBox="0 0 75.9203 74.6541" xmlns="http://www.w3.org/2000/svg" xmlns:xlink="http://www.w3.org/1999/xlink" id="svg134" fill="none" xml:space="preserve" overflow="hidden"><defs id="defs138"><clipPath id="clip0_32_2141"><rect x="0" y="0" width="24" height="24" id="rect243" fill="#FFFFFF"/></clipPath><clipPath id="clip0_32_1516"><rect x="0" y="0" width="24" height="24" id="rect2184" fill="#FFFFFF"/></clipPath></defs><ellipse cx="37.9601" cy="37.327" rx="36.4566" ry="35.8235" id="path356" stroke="#CFCFCF" stroke-width="3.00707"/><g id="g2207" fill="#CFCFCF" transform="matrix(2.4 0 0 2.4 9.60287 8.33669)"><path d="M4 6 2 6 2 20C2 21.1 2.9 22 4 22L18 22 18 20 4 20ZM20 2 8 2C6.9 2 6 2.9 6 4L6 16C6 17.1 6.9 18 8 18L20 18C21.1 18 22 17.1 22 16L22 4C22 2.9 21.1 2 20 2ZM20 16 8 16 8 4 20 4ZM10 9 18 9 18 11 10 11ZM10 12 14 12 14 14 10 14ZM10 6 18 6 18 8 10 8Z" id="path2180" clip-path="url(#clipPath2200)"/></g></svg>