<svg width="75.9203" height="74.6541" viewBox="0 0 75.9203 74.6541" xmlns="http://www.w3.org/2000/svg" xmlns:xlink="http://www.w3.org/1999/xlink" id="svg134" fill="none" xml:space="preserve" overflow="hidden"><defs id="defs138"><clipPath id="clip0_32_2141"><rect x="0" y="0" width="24" height="24" id="rect243" fill="#FFFFFF"/></clipPath><clipPath id="clip0_32_1516"><rect x="0" y="0" width="24" height="24" id="rect2184" fill="#FFFFFF"/></clipPath><clipPath id="clip0_32_2164"><rect x="0" y="0" width="24" height="24" id="rect4470" fill="#FFFFFF"/></clipPath><clipPath id="clip0_32_427"><rect x="0" y="0" width="24" height="24" id="rect4874" fill="#FFFFFF"/></clipPath><clipPath id="clip0_32_601"><rect x="0" y="0" width="24" height="24" id="rect6014" fill="#FFFFFF"/></clipPath></defs><ellipse cx="37.9601" cy="37.327" rx="36.4566" ry="35.8235" id="path356" stroke="#585858" stroke-width="3.00707"/><g id="g6031" fill="#585858" transform="matrix(2.47 0 0 2.47 8.32014 7.68705)"><g id="g6012" clip-path="url(#clip0_32_601)"><path d="M20 3 4 3C2.9 3 2 3.9 2 5L2 19C2 20.1 2.9 21 4 21L20 21C21.1 21 22 20.1 22 19L22 5C22 3.9 21.1 3 20 3ZM20 19 4 19 4 5 20 5Z" id="path6002" fill-rule="evenodd" clip-rule="evenodd"/><path d="M19.41 10.42 17.99 9 14.82 12.17 13.41 10.75 12 12.16 14.82 15Z" id="path6004" fill-rule="evenodd" clip-rule="evenodd"/><path d="M10 7 5 7 5 9 10 9Z" id="path6006"/><path d="M10 11 5 11 5 13 10 13Z" id="path6008"/><path d="M10 15 5 15 5 17 10 17Z" id="path6010"/></g></g></svg>