<svg width="75.9203" height="74.6541" viewBox="0 0 75.9203 74.6541" xmlns="http://www.w3.org/2000/svg" xmlns:xlink="http://www.w3.org/1999/xlink" id="svg134" fill="none" xml:space="preserve" overflow="hidden"><defs id="defs138"><clipPath id="clip0_32_2141"><rect x="0" y="0" width="24" height="24" id="rect243" fill="#FFFFFF"/></clipPath><clipPath id="clip0_32_1516"><rect x="0" y="0" width="24" height="24" id="rect2184" fill="#FFFFFF"/></clipPath><clipPath id="clip0_32_2164"><rect x="0" y="0" width="24" height="24" id="rect4470" fill="#FFFFFF"/></clipPath><clipPath id="clip0_32_427"><rect x="0" y="0" width="24" height="24" id="rect4874" fill="#FFFFFF"/></clipPath></defs><ellipse cx="37.9601" cy="37.327" rx="36.4566" ry="35.8235" id="path356" stroke="#585858" stroke-width="3.00707"/><g id="g4897" fill="#585858" transform="matrix(2.19061 0 0 2.19061 11.7732 11.0388)"><path d="M22.61 18.99 13.53 9.90997C14.46 7.56997 13.98 4.80997 12.09 2.90997 9.79001 0.609971 6.21001 0.399971 3.66001 2.25997L7.50001 6.10997 6.08001 7.51997 2.25001 3.68997C0.390007 6.22997 0.600007 9.81997 2.90001 12.11 4.76001 13.97 7.47001 14.46 9.79001 13.59L18.9 22.7C19.29 23.09 19.92 23.09 20.31 22.7L22.61 20.4C23.01 20.02 23.01 19.39 22.61 18.99ZM19.61 20.59 10.15 11.13C9.54001 11.58 8.86001 11.85 8.15001 11.95 6.79001 12.15 5.36001 11.74 4.32001 10.7 3.37001 9.75997 2.93001 8.49997 3.00001 7.25997L6.09001 10.35 10.33 6.10997 7.24001 3.01997C8.48001 2.94997 9.73001 3.38997 10.68 4.32997 11.76 5.40997 12.17 6.89997 11.92 8.28997 11.8 8.99997 11.5 9.65997 11.04 10.25L20.49 19.7Z" id="path4870" clip-path="url(#clipPath4890)"/></g></svg>