<svg width="75.9203" height="74.6541" viewBox="0 0 75.9203 74.6541" xmlns="http://www.w3.org/2000/svg" xmlns:xlink="http://www.w3.org/1999/xlink" id="svg134" fill="none" overflow="hidden"><defs id="defs138"></defs><path d="M37.9601 67.327C31.0101 65.5771 25.2726 61.5895 20.7476 55.3645 16.2226 49.1395 13.9601 42.2269 13.9601 34.627L13.9601 16.327 37.9601 7.32704 61.9601 16.327 61.9601 34.627C61.9601 42.2269 59.6975 49.1395 55.1726 55.3645 50.6477 61.5895 44.9102 65.5771 37.9601 67.327ZM37.9601 61.027C42.8102 59.527 46.8602 56.5645 50.1101 52.1395 53.36 47.7145 55.2602 42.7771 55.8101 37.327L37.9601 37.327 37.9601 13.702 19.9601 20.452 19.9601 35.977C19.9601 36.3271 20.0101 36.7771 20.1101 37.327L37.9601 37.327Z" id="path132" stroke-width="3" fill="#585858"/><ellipse cx="37.9601" cy="37.327" rx="36.4566" ry="35.8235" id="path356" stroke="#585858" stroke-width="3.00707"/></svg>