<?xml version="1.0" encoding="UTF-8" standalone="no"?>
<svg
   width="75.920273"
   height="74.654091"
   viewBox="0 0 75.920273 74.654091"
   fill="none"
   version="1.1"
   id="svg134"
   sodipodi:docname="aisseregch.svg"
   inkscape:version="1.2.1 (9c6d41e410, 2022-07-14)"
   xml:space="preserve"
   xmlns:inkscape="http://www.inkscape.org/namespaces/inkscape"
   xmlns:sodipodi="http://sodipodi.sourceforge.net/DTD/sodipodi-0.dtd"
   xmlns="http://www.w3.org/2000/svg"
   xmlns:svg="http://www.w3.org/2000/svg"><defs
     id="defs138"><clipPath
       id="clip0_32_2141"><rect
         width="24"
         height="24"
         fill="white"
         id="rect243" /></clipPath></defs><sodipodi:namedview
     id="namedview136"
     pagecolor="#ffffff"
     bordercolor="#000000"
     borderopacity="0.25"
     inkscape:showpageshadow="2"
     inkscape:pageopacity="0.0"
     inkscape:pagecheckerboard="0"
     inkscape:deskcolor="#d1d1d1"
     showgrid="false"
     inkscape:zoom="8.6875"
     inkscape:cx="6.618705"
     inkscape:cy="32.863309"
     inkscape:window-width="3000"
     inkscape:window-height="1960"
     inkscape:window-x="3828"
     inkscape:window-y="157"
     inkscape:window-maximized="1"
     inkscape:current-layer="svg134" /><ellipse
     style="fill:none;stroke:#924ff5;stroke-width:3.00707;stroke-dasharray:none;stroke-opacity:1"
     id="path356"
     cx="37.960136"
     cy="37.327045"
     rx="36.4566"
     ry="35.823509" /><g
     style="fill:#924ff5;fill-opacity:1"
     id="g266"
     transform="matrix(2.5263158,0,0,2.5263158,8.3811889,6.3796769)"><path
       d="m 11,12 c 2.21,0 4,-1.79 4,-4 C 15,5.79 13.21,4 11,4 8.79,4 7,5.79 7,8 c 0,2.21 1.79,4 4,4 z m 0,-6 c 1.1,0 2,0.9 2,2 0,1.1 -0.9,2 -2,2 C 9.9,10 9,9.1 9,8 9,6.9 9.9,6 11,6 Z M 5,18 c 0.2,-0.63 2.57,-1.68 4.96,-1.94 l 2.04,-2 C 11.61,14.02 11.32,14 11,14 8.33,14 3,15.34 3,18 v 2 h 9 L 10,18 Z M 20.6,12.5 15.47,17.67 13.4,15.59 12,17 15.47,20.5 22,13.91 Z"
       fill="#000000"
       fill-opacity="0.6"
       id="path239"
       clip-path="url(#clipPath259)"
       style="fill:#924ff5;fill-opacity:1" /></g></svg>
