<?xml version="1.0" encoding="UTF-8" standalone="no"?>
<svg
   width="75.920273"
   height="74.654091"
   viewBox="0 0 75.920273 74.654091"
   fill="none"
   version="1.1"
   id="svg134"
   sodipodi:docname="aisserviunch.svg"
   inkscape:version="1.2.1 (9c6d41e410, 2022-07-14)"
   xml:space="preserve"
   xmlns:inkscape="http://www.inkscape.org/namespaces/inkscape"
   xmlns:sodipodi="http://sodipodi.sourceforge.net/DTD/sodipodi-0.dtd"
   xmlns="http://www.w3.org/2000/svg"
   xmlns:svg="http://www.w3.org/2000/svg"><defs
     id="defs138"><clipPath
       id="clip0_32_2141"><rect
         width="24"
         height="24"
         fill="white"
         id="rect243" /></clipPath><clipPath
       id="clip0_32_1516"><rect
         width="24"
         height="24"
         fill="white"
         id="rect2184" /></clipPath></defs><sodipodi:namedview
     id="namedview136"
     pagecolor="#ffffff"
     bordercolor="#000000"
     borderopacity="0.25"
     inkscape:showpageshadow="2"
     inkscape:pageopacity="0.0"
     inkscape:pagecheckerboard="0"
     inkscape:deskcolor="#d1d1d1"
     showgrid="false"
     inkscape:zoom="8.6875"
     inkscape:cx="6.618705"
     inkscape:cy="32.805755"
     inkscape:window-width="3000"
     inkscape:window-height="1960"
     inkscape:window-x="3828"
     inkscape:window-y="157"
     inkscape:window-maximized="1"
     inkscape:current-layer="svg134" /><ellipse
     style="fill:none;stroke:#cfcfcf;stroke-width:3.00707;stroke-dasharray:none;stroke-opacity:1"
     id="path356"
     cx="37.960136"
     cy="37.327045"
     rx="36.4566"
     ry="35.823509" /><g
     style="fill:#cfcfcf;stroke:none;stroke-opacity:1;fill-opacity:1"
     id="g2207"
     transform="matrix(2.4,0,0,2.4,9.6028729,8.3366905)"><path
       d="M 4,6 H 2 v 14 c 0,1.1 0.9,2 2,2 H 18 V 20 H 4 Z M 20,2 H 8 C 6.9,2 6,2.9 6,4 v 12 c 0,1.1 0.9,2 2,2 h 12 c 1.1,0 2,-0.9 2,-2 V 4 C 22,2.9 21.1,2 20,2 Z m 0,14 H 8 V 4 H 20 Z M 10,9 h 8 v 2 h -8 z m 0,3 h 4 v 2 h -4 z m 0,-6 h 8 v 2 h -8 z"
       fill="#000000"
       fill-opacity="0.6"
       id="path2180"
       clip-path="url(#clipPath2200)"
       style="stroke:none;stroke-opacity:1;fill:#cfcfcf;fill-opacity:1" /></g></svg>
