<?xml version="1.0" encoding="UTF-8" standalone="no"?>
<svg
   width="75.920273"
   height="74.654091"
   viewBox="0 0 75.920273 74.654091"
   fill="none"
   version="1.1"
   id="svg134"
   sodipodi:docname="aissepri.svg"
   inkscape:version="1.2.1 (9c6d41e410, 2022-07-14)"
   xml:space="preserve"
   xmlns:inkscape="http://www.inkscape.org/namespaces/inkscape"
   xmlns:sodipodi="http://sodipodi.sourceforge.net/DTD/sodipodi-0.dtd"
   xmlns="http://www.w3.org/2000/svg"
   xmlns:svg="http://www.w3.org/2000/svg"><defs
     id="defs138"><clipPath
       id="clip0_32_2141"><rect
         width="24"
         height="24"
         fill="white"
         id="rect243" /></clipPath><clipPath
       id="clip0_32_1516"><rect
         width="24"
         height="24"
         fill="white"
         id="rect2184" /></clipPath><clipPath
       id="clip0_32_2164"><rect
         width="24"
         height="24"
         fill="white"
         id="rect4470" /></clipPath></defs><sodipodi:namedview
     id="namedview136"
     pagecolor="#ffffff"
     bordercolor="#000000"
     borderopacity="0.25"
     inkscape:showpageshadow="2"
     inkscape:pageopacity="0.0"
     inkscape:pagecheckerboard="0"
     inkscape:deskcolor="#d1d1d1"
     showgrid="false"
     inkscape:zoom="8.6875"
     inkscape:cx="15.71223"
     inkscape:cy="32.805755"
     inkscape:window-width="3000"
     inkscape:window-height="1960"
     inkscape:window-x="3828"
     inkscape:window-y="157"
     inkscape:window-maximized="1"
     inkscape:current-layer="svg134" /><ellipse
     style="fill:none;stroke:#585858;stroke-width:3.00707;stroke-dasharray:none;stroke-opacity:1"
     id="path356"
     cx="37.960136"
     cy="37.327045"
     rx="36.4566"
     ry="35.823509" /><g
     style="fill:#585858;fill-opacity:1"
     id="g4493"
     transform="matrix(-2.65,0,0,-2.65,69.760136,68.452045)"><path
       d="m 14,5 h 8 v 2 h -8 z m 0,5.5 h 8 v 2 h -8 z m 0,5.5 h 8 v 2 H 14 Z M 2,11.5 C 2,15.08 4.92,18 8.5,18 H 9 v 2 l 3,-3 -3,-3 v 2 H 8.5 C 6.02,16 4,13.98 4,11.5 4,9.02 6.02,7 8.5,7 H 12 V 5 H 8.5 C 4.92,5 2,7.92 2,11.5 Z"
       fill="#000000"
       fill-opacity="0.6"
       id="path4466"
       clip-path="url(#clipPath4486)"
       style="fill:#585858;fill-opacity:1" /></g></svg>
