<?xml version="1.0" encoding="UTF-8" standalone="no"?>
<svg
   width="75.920273"
   height="74.654091"
   viewBox="0 0 75.920273 74.654091"
   fill="none"
   version="1.1"
   id="svg134"
   sodipodi:docname="aisseinproch.svg"
   inkscape:version="1.2.1 (9c6d41e410, 2022-07-14)"
   xml:space="preserve"
   xmlns:inkscape="http://www.inkscape.org/namespaces/inkscape"
   xmlns:sodipodi="http://sodipodi.sourceforge.net/DTD/sodipodi-0.dtd"
   xmlns="http://www.w3.org/2000/svg"
   xmlns:svg="http://www.w3.org/2000/svg"><defs
     id="defs138"><clipPath
       id="clip0_32_2141"><rect
         width="24"
         height="24"
         fill="white"
         id="rect243" /></clipPath><clipPath
       id="clip0_32_1516"><rect
         width="24"
         height="24"
         fill="white"
         id="rect2184" /></clipPath><clipPath
       id="clip0_32_2164"><rect
         width="24"
         height="24"
         fill="white"
         id="rect4470" /></clipPath><clipPath
       id="clip0_32_427"><rect
         width="24"
         height="24"
         fill="white"
         id="rect4874" /></clipPath></defs><sodipodi:namedview
     id="namedview136"
     pagecolor="#ffffff"
     bordercolor="#000000"
     borderopacity="0.25"
     inkscape:showpageshadow="2"
     inkscape:pageopacity="0.0"
     inkscape:pagecheckerboard="0"
     inkscape:deskcolor="#d1d1d1"
     showgrid="false"
     inkscape:zoom="8.6875"
     inkscape:cx="6.618705"
     inkscape:cy="32.805755"
     inkscape:window-width="3000"
     inkscape:window-height="1960"
     inkscape:window-x="3828"
     inkscape:window-y="157"
     inkscape:window-maximized="1"
     inkscape:current-layer="svg134" /><ellipse
     style="fill:none;stroke:#924ff5;stroke-width:3.00707;stroke-dasharray:none;stroke-opacity:1"
     id="path356"
     cx="37.960136"
     cy="37.327045"
     rx="36.4566"
     ry="35.823509" /><g
     style="fill:#924ff5;fill-opacity:1"
     id="g4897"
     transform="matrix(2.1906142,0,0,2.1906142,11.773165,11.038798)"><path
       d="M 22.61,18.99 13.53,9.90997 c 0.93,-2.34 0.45,-5.1 -1.44,-7 C 9.79001,0.609971 6.21001,0.399971 3.66001,2.25997 l 3.84,3.85 -1.42,1.41 -3.83,-3.83 c -1.860003,2.54 -1.650003,6.13 0.65,8.42003 1.86,1.86 4.57,2.35 6.89,1.48 L 18.9,22.7 c 0.39,0.39 1.02,0.39 1.41,0 l 2.3,-2.3 c 0.4,-0.38 0.4,-1.01 0,-1.41 z m -3,1.6 -9.46,-9.46 c -0.60999,0.45 -1.28999,0.72 -1.99999,0.82 -1.36,0.2 -2.79,-0.21 -3.83,-1.25 -0.95,-0.94003 -1.39,-2.20003 -1.32,-3.44003 L 6.09001,10.35 10.33,6.10997 7.24001,3.01997 c 1.24,-0.07 2.49,0.37 3.43999,1.31 1.08,1.08 1.49,2.57 1.24,3.96 -0.12,0.71 -0.42,1.37 -0.88,1.96003 l 9.45,9.45 z"
       fill="#000000"
       fill-opacity="0.6"
       id="path4870"
       clip-path="url(#clipPath4890)"
       style="fill:#924ff5;fill-opacity:1" /></g></svg>
