<?xml version="1.0" encoding="UTF-8" standalone="no"?>
<svg
   width="75.920273"
   height="74.654091"
   viewBox="0 0 75.920273 74.654091"
   fill="none"
   version="1.1"
   id="svg134"
   sodipodi:docname="aissechkunch.svg"
   inkscape:version="1.2.1 (9c6d41e410, 2022-07-14)"
   xml:space="preserve"
   xmlns:inkscape="http://www.inkscape.org/namespaces/inkscape"
   xmlns:sodipodi="http://sodipodi.sourceforge.net/DTD/sodipodi-0.dtd"
   xmlns="http://www.w3.org/2000/svg"
   xmlns:svg="http://www.w3.org/2000/svg"><defs
     id="defs138"><clipPath
       id="clip0_32_2141"><rect
         width="24"
         height="24"
         fill="white"
         id="rect243" /></clipPath><clipPath
       id="clip0_32_1516"><rect
         width="24"
         height="24"
         fill="white"
         id="rect2184" /></clipPath><clipPath
       id="clip0_32_2164"><rect
         width="24"
         height="24"
         fill="white"
         id="rect4470" /></clipPath><clipPath
       id="clip0_32_427"><rect
         width="24"
         height="24"
         fill="white"
         id="rect4874" /></clipPath><clipPath
       id="clip0_32_601"><rect
         width="24"
         height="24"
         fill="white"
         id="rect6014" /></clipPath></defs><sodipodi:namedview
     id="namedview136"
     pagecolor="#ffffff"
     bordercolor="#000000"
     borderopacity="0.25"
     inkscape:showpageshadow="2"
     inkscape:pageopacity="0.0"
     inkscape:pagecheckerboard="0"
     inkscape:deskcolor="#d1d1d1"
     showgrid="false"
     inkscape:zoom="8.6875"
     inkscape:cx="-2.4748201"
     inkscape:cy="32.805755"
     inkscape:window-width="3000"
     inkscape:window-height="1960"
     inkscape:window-x="3828"
     inkscape:window-y="157"
     inkscape:window-maximized="1"
     inkscape:current-layer="svg134" /><ellipse
     style="fill:none;stroke:#cfcfcf;stroke-width:3.00707;stroke-dasharray:none;stroke-opacity:1"
     id="path356"
     cx="37.960136"
     cy="37.327045"
     rx="36.4566"
     ry="35.823509" /><g
     style="fill:#cfcfcf;fill-opacity:1"
     id="g6031"
     transform="matrix(2.47,0,0,2.47,8.3201364,7.6870454)"><g
       clip-path="url(#clip0_32_601)"
       id="g6012"
       style="fill:#cfcfcf;fill-opacity:1"><path
         fill-rule="evenodd"
         clip-rule="evenodd"
         d="M 20,3 H 4 C 2.9,3 2,3.9 2,5 v 14 c 0,1.1 0.9,2 2,2 h 16 c 1.1,0 2,-0.9 2,-2 V 5 C 22,3.9 21.1,3 20,3 Z m 0,16 H 4 V 5 h 16 z"
         fill="#000000"
         fill-opacity="0.6"
         id="path6002"
         style="fill:#cfcfcf;fill-opacity:1" /><path
         fill-rule="evenodd"
         clip-rule="evenodd"
         d="M 19.41,10.42 17.99,9 14.82,12.17 13.41,10.75 12,12.16 14.82,15 Z"
         fill="#000000"
         fill-opacity="0.6"
         id="path6004"
         style="fill:#cfcfcf;fill-opacity:1" /><path
         d="M 10,7 H 5 v 2 h 5 z"
         fill="#000000"
         fill-opacity="0.6"
         id="path6006"
         style="fill:#cfcfcf;fill-opacity:1" /><path
         d="M 10,11 H 5 v 2 h 5 z"
         fill="#000000"
         fill-opacity="0.6"
         id="path6008"
         style="fill:#cfcfcf;fill-opacity:1" /><path
         d="M 10,15 H 5 v 2 h 5 z"
         fill="#000000"
         fill-opacity="0.6"
         id="path6010"
         style="fill:#cfcfcf;fill-opacity:1" /></g></g></svg>
