<?xml version="1.0" encoding="UTF-8" standalone="no"?>
<svg
   width="75.920273"
   height="74.654091"
   viewBox="0 0 75.920273 74.654091"
   fill="none"
   version="1.1"
   id="svg134"
   sodipodi:docname="aisseopssvgch.svg"
   inkscape:version="1.2.1 (9c6d41e410, 2022-07-14)"
   xmlns:inkscape="http://www.inkscape.org/namespaces/inkscape"
   xmlns:sodipodi="http://sodipodi.sourceforge.net/DTD/sodipodi-0.dtd"
   xmlns="http://www.w3.org/2000/svg"
   xmlns:svg="http://www.w3.org/2000/svg">
  <defs
     id="defs138" />
  <sodipodi:namedview
     id="namedview136"
     pagecolor="#ffffff"
     bordercolor="#000000"
     borderopacity="0.25"
     inkscape:showpageshadow="2"
     inkscape:pageopacity="0.0"
     inkscape:pagecheckerboard="0"
     inkscape:deskcolor="#d1d1d1"
     showgrid="false"
     inkscape:zoom="8.6875"
     inkscape:cx="6.618705"
     inkscape:cy="32.863309"
     inkscape:window-width="3000"
     inkscape:window-height="1960"
     inkscape:window-x="3828"
     inkscape:window-y="157"
     inkscape:window-maximized="1"
     inkscape:current-layer="svg134" />
  <path
     d="m 37.960135,67.327044 c -6.95001,-1.749899 -12.68751,-5.737499 -17.2125,-11.9625 -4.52499,-6.225 -6.7875,-13.1376 -6.7875,-20.7375 v -18.3 l 24,-8.9999998 24,8.9999998 v 18.300001 c 0,7.599899 -2.2626,14.5125 -6.7875,20.737499 -4.5249,6.225001 -10.2624,10.212601 -17.2125,11.9625 z m 0,-6.299999 c 4.8501,-1.5 8.9001,-4.4625 12.15,-8.8875 3.2499,-4.425 5.1501,-9.3624 5.7,-14.8125 h -17.85 V 13.702044 l -18,6.750001 v 15.525 c 0,0.3501 0.05001,0.8001 0.15,1.35 h 17.85 z"
     fill="#585858"
     id="path132"
     style="stroke-width:3;fill:#924ff5;fill-opacity:1" />
  <ellipse
     style="fill:none;stroke:#924ff5;stroke-width:3.00707;stroke-dasharray:none;stroke-opacity:1"
     id="path356"
     cx="37.960136"
     cy="37.327045"
     rx="36.4566"
     ry="35.823509" />
</svg>
