<?xml version="1.0" encoding="UTF-8" standalone="no"?>
<svg
   width="249.03604"
   height="308.7207"
   viewBox="0 0 249.03604 308.72071"
   fill="none"
   version="1.1"
   id="svg8"
   sodipodi:docname="badgesreg.svg"
   inkscape:export-filename="..\OneDrive\Desktop\State=Symbolsgold.png"
   inkscape:export-xdpi="564.70587"
   inkscape:export-ydpi="564.70587"
   inkscape:version="1.2.1 (9c6d41e410, 2022-07-14)"
   xmlns:inkscape="http://www.inkscape.org/namespaces/inkscape"
   xmlns:sodipodi="http://sodipodi.sourceforge.net/DTD/sodipodi-0.dtd"
   xmlns="http://www.w3.org/2000/svg"
   xmlns:svg="http://www.w3.org/2000/svg">
  <defs
     id="defs12">
    <rect
       x="-88.372879"
       y="3.2542374"
       width="52.779659"
       height="33.457626"
       id="rect3917" />
  </defs>
  <sodipodi:namedview
     id="namedview10"
     pagecolor="#ffffff"
     bordercolor="#000000"
     borderopacity="0.25"
     inkscape:showpageshadow="2"
     inkscape:pageopacity="0.0"
     inkscape:pagecheckerboard="0"
     inkscape:deskcolor="#d1d1d1"
     showgrid="false"
     inkscape:zoom="2.2280734"
     inkscape:cx="4.9370008"
     inkscape:cy="210.04694"
     inkscape:window-width="3000"
     inkscape:window-height="1960"
     inkscape:window-x="-12"
     inkscape:window-y="-12"
     inkscape:window-maximized="1"
     inkscape:current-layer="svg8" />
  <g
     id="g4053"
     transform="matrix(5.4,0,0,5.4,-9.9773305,-5.3460534)"
     style="fill:#4682b4;fill-opacity:1">
    <path
       d="m 7.9066457,17.741051 c 0,-2.0946 1.697,-3.79366 3.7915703,-3.79366 2.09458,0 3.79397,-1.69734 3.79397,-3.79191 0,-2.0942304 1.69904,-3.7936264 3.79366,-3.7936264 2.0945,0 3.7915,1.699396 3.7915,3.7936264 0,2.09457 -1.697,3.79191 -3.7915,3.79191 -2.09462,0 -3.79366,1.69906 -3.79366,3.79366 0,2.0945 1.69904,3.7915 3.79366,3.7915 2.0945,0 3.7915,1.6994 3.7915,3.794 0,2.0942 -1.697,3.7916 -3.7915,3.7916 -2.09462,0 -3.79366,-1.6974 -3.79366,-3.7916 0,-2.0946 -1.69939,-3.794 -3.79397,-3.794 -2.0945703,0 -3.7915703,-1.697 -3.7915703,-3.7915 z"
       fill="#151A1A"
       id="path2"
       style="fill:#4682b4;fill-opacity:1" />
    <path
       d="m 41.906446,17.738951 c 0,2.0946 -1.697,3.7936 -3.7915,3.7936 -2.0946,0 -3.7937,1.6974 -3.7937,3.792 0,2.0942 -1.6994,3.7936 -3.7939,3.7936 -2.0946,0 -3.7916,-1.6994 -3.7916,-3.7936 0,-2.0946 1.697,-3.792 3.7916,-3.792 2.0945,0 3.7939,-1.699 3.7939,-3.7936 0,-2.0946 -1.6994,-3.79156 -3.7939,-3.79156 -2.0946,0 -3.7916,-1.69939 -3.7916,-3.79396 0,-2.0942304 1.697,-3.7915764 3.7916,-3.7915764 2.0945,0 3.7939,1.697346 3.7939,3.7915764 0,2.09457 1.6991,3.79396 3.7937,3.79396 2.0945,0 3.7915,1.69696 3.7915,3.79156 z"
       fill="#151A1A"
       id="path4"
       style="fill:#4682b4;fill-opacity:1" />
    <path
       d="m 24.943146,21.368051 c 2.0355,0 3.6858,-1.6503 3.6858,-3.6859 0,-2.0359 -1.6503,-3.68624 -3.6858,-3.68624 -2.036,0 -3.6859,1.65034 -3.6859,3.68624 0,2.0356 1.6499,3.6859 3.6859,3.6859 z"
       fill="#151A1A"
       id="path6"
       style="fill:#4682b4;fill-opacity:1" />
  </g>
  <rect
     style="fill:none;fill-opacity:1;stroke:#4682b4;stroke-width:7.32;stroke-dasharray:none;stroke-opacity:1"
     id="rect901"
     width="241.71603"
     height="301.4007"
     x="3.6600001"
     y="3.6600001"
     rx="19.340668" />
  <text
     xml:space="preserve"
     style="font-size:2000px;font-family:'Hammersmith One';-inkscape-font-specification:'Hammersmith One, Normal';letter-spacing:4.1px;fill:#4682b4;fill-opacity:1;stroke:none;stroke-width:7.32;stroke-dasharray:none;stroke-opacity:1"
     x="44.299561"
     y="229.03618"
     id="text3863"><tspan
       sodipodi:role="line"
       id="tspan3861"
       x="44.299561"
       y="229.03618"
       style="font-style:normal;font-variant:normal;font-weight:500;font-stretch:normal;font-size:53.3335px;font-family:Roboto;-inkscape-font-specification:'Roboto, Medium';font-variant-ligatures:normal;font-variant-caps:normal;font-variant-numeric:normal;font-variant-east-asian:normal;fill:#4682b4;fill-opacity:1;stroke:none;stroke-width:7.32">AISSE</tspan></text>
  <text
     xml:space="preserve"
     style="font-style:normal;font-variant:normal;font-weight:500;font-stretch:normal;font-size:33.3334px;font-family:Roboto;-inkscape-font-specification:'Roboto, Medium';font-variant-ligatures:normal;font-variant-caps:normal;font-variant-numeric:normal;font-variant-east-asian:normal;fill:#4682b4;fill-opacity:1;stroke:none;stroke-width:7.32;stroke-dasharray:none;stroke-opacity:1"
     x="44.171177"
     y="266.85168"
     id="text3863-8"><tspan
       sodipodi:role="line"
       id="tspan4947"
       x="44.171177"
       y="266.85168">Registered</tspan></text>
  <text
     xml:space="preserve"
     id="text3915"
     style="font-style:normal;font-variant:normal;font-weight:normal;font-stretch:normal;font-size:17.3333px;font-family:'Hammersmith One';-inkscape-font-specification:'Hammersmith One, Normal';font-variant-ligatures:normal;font-variant-caps:normal;font-variant-numeric:normal;font-variant-east-asian:normal;white-space:pre;shape-inside:url(#rect3917);display:inline;fill:none;fill-opacity:1;stroke:#c4c4c4;stroke-width:1.464;stroke-dasharray:none;stroke-opacity:1"
     transform="matrix(5,0,0,5,1.7499505,1.7499477)" />
</svg>
